<svg width="12" height="18" viewBox="0 0 12 18" fill="none" xmlns="http://www.w3.org/2000/svg">
<path fill-rule="evenodd" clip-rule="evenodd" d="M7.94576 6.23962C7.75779 6.23962 7.60742 6.41539 7.60742 6.6351V14.2589C7.60742 14.4786 7.75779 14.6544 7.94576 14.6544C8.13372 14.6544 8.28409 14.4786 8.28409 14.2589V6.6351C8.28409 6.41539 8.13372 6.23962 7.94576 6.23962Z" fill="#FEFEFE"/>
<path fill-rule="evenodd" clip-rule="evenodd" d="M3.88521 6.23962C3.69725 6.23962 3.54688 6.41539 3.54688 6.6351V14.2589C3.54688 14.4786 3.69725 14.6544 3.88521 14.6544C4.07317 14.6544 4.22354 14.4786 4.22354 14.2589V6.6351C4.22354 6.41539 4.07317 6.23962 3.88521 6.23962Z" fill="#FEFEFE"/>
<path fill-rule="evenodd" clip-rule="evenodd" d="M0.915486 5.11916V15.0499C0.915486 15.6431 1.10345 16.1924 1.42298 16.5878C1.74252 16.9833 2.19363 17.203 2.66353 17.203H9.1858C9.65571 17.203 10.1068 16.9833 10.4263 16.5878C10.7459 16.1924 10.9338 15.6431 10.9338 15.0499V5.11916C11.5729 4.92142 11.9864 4.19639 11.9112 3.42742C11.8173 2.65845 11.2722 2.08721 10.6143 2.08721H8.84747V1.58189C8.84747 1.16444 8.6971 0.747001 8.45275 0.461383C8.1896 0.153794 7.85127 0 7.49415 0H4.43037C4.07324 0 3.71612 0.153794 3.47177 0.461383C3.20862 0.768972 3.07705 1.16444 3.07705 1.58189V2.08721H1.31021C0.652339 2.08721 0.0884544 2.65845 0.0132697 3.42742C-0.0807112 4.19639 0.332805 4.92142 0.990671 5.11916H0.915486ZM9.1858 16.3901H2.66353C2.08085 16.3901 1.61094 15.7969 1.61094 15.0499V5.1631H10.2384V15.0499C10.2384 15.8189 9.78728 16.3901 9.1858 16.3901ZM3.71612 1.58189C3.71612 1.36218 3.7913 1.16444 3.90408 1.03262C4.03565 0.878825 4.20482 0.812913 4.39278 0.812913H7.45655C7.64452 0.812913 7.81368 0.900796 7.94525 1.03262C8.07683 1.18641 8.15201 1.38415 8.13322 1.58189V2.08721H3.71612V1.58189ZM1.25382 2.90012H10.5767C10.915 2.90012 11.197 3.22968 11.197 3.62515C11.197 4.02063 10.915 4.35018 10.5767 4.35018H1.25382C0.915486 4.35018 0.633543 4.02063 0.633543 3.62515C0.633543 3.22968 0.915486 2.90012 1.25382 2.90012Z" fill="#FEFEFE"/>
<path fill-rule="evenodd" clip-rule="evenodd" d="M5.91451 6.23962C5.72654 6.23962 5.57617 6.41539 5.57617 6.6351V14.2589C5.57617 14.4786 5.72654 14.6544 5.91451 14.6544C6.10247 14.6544 6.25284 14.4786 6.25284 14.2589V6.6351C6.25284 6.41539 6.10247 6.23962 5.91451 6.23962Z" fill="#FEFEFE"/>
</svg>
