<svg width="138" height="360" viewBox="0 0 138 360" fill="none" xmlns="http://www.w3.org/2000/svg">
<path d="M53.576 31.5349C55.344 33.4889 56.4843 36.7417 57 38C59 40.5 60.7327 42.5 69 42.5C75.9043 42.5 79.9687 39.5543 81 38C81.884 36.0015 81.6433 35.3097 84.7373 31.5349C87.2125 28.515 85.4003 16.9537 84.7373 11.5505C84.1923 7.10957 79.1239 0.181631 69.0463 0.00399216C56.4493 -0.218056 54.018 8.88594 52.913 11.5505C51.808 14.2151 51.366 29.0924 53.576 31.5349Z" fill="#0E4272"/>
<path d="M32.5019 138.753C32.3249 128.283 36.559 120.785 38.6982 118.345C37.9896 114.973 38.9934 113.095 39.5839 112.577C44.3638 87.7324 35.8956 68.581 31.1747 62C23.0311 64.1296 21.5116 71.3908 21.6591 74.8662C21.2903 80.7077 20.5526 94.2986 20.5526 101.93C20.5526 109.561 18.4872 120.489 17.4545 125C16.2005 127.218 13.5597 132.498 13.0287 135.87C12.4976 139.241 6.46363 164.634 3.51303 176.908C2.8491 179.422 1.25567 186.27 0.19346 193.546C-0.868749 200.822 2.70145 206.782 4.61933 208.852C6.46318 209.961 9.84106 211.248 8.60182 207.521C7.36257 203.794 9.11817 193.398 10.1509 188.665C11.8478 184.229 14.9317 177.663 13.6925 186.891C12.4533 196.119 14.2089 196.651 15.2416 195.764C16.6428 193.989 19.2241 189.242 18.339 184.451C17.4538 179.659 19.4454 171.067 20.5519 167.37C24.609 162.194 32.679 149.224 32.5019 138.753Z" fill="#0E4272"/>
<path d="M105.561 139.379C105.738 128.854 101.512 121.317 99.3766 118.864C99.7039 115.965 99.0819 113.586 98.4925 113.066C93.7218 88.0905 101.471 70.4738 106.551 62C114.679 64.1408 116.53 71.6631 116.383 75.1567C116.751 81.0289 117.487 94.6911 117.487 102.362C117.487 110.033 119.548 121.019 120.579 125.554C121.831 127.784 124.466 133.091 124.996 136.48C125.527 139.87 131.549 165.396 134.494 177.735C135.156 180.262 136.747 187.145 137.807 194.459C138.867 201.774 135.304 207.765 133.39 209.846C131.549 210.961 128.178 212.254 129.415 208.508C130.652 204.762 128.899 194.311 127.869 189.553C126.175 185.093 123.097 178.493 124.334 187.769C125.571 197.046 123.819 197.581 122.788 196.689C121.389 194.905 118.813 190.133 119.696 185.316C120.58 180.5 118.592 171.862 117.488 168.146C113.439 162.943 105.384 149.905 105.561 139.379Z" fill="#0E4272"/>
<path d="M81 38C77.1869 43.3977 61.486 43.6136 57 38C59.4673 43.8295 58.271 49.7311 57.6729 52.8977C62.8318 56.3523 64.2897 57.0682 69 57.5C74 57 78.3084 54.4091 80.3271 52.8977C79.8785 49.6591 78.757 44.4773 81 38Z" fill="#0E4272"/>
<path d="M39.4692 113.088C42.8569 91.123 40 78.5 31 61.7768C36.5718 60.2015 50.6129 58.4011 57.9677 53C69.2006 58.5812 69.1114 58.6262 80.478 53C89.5713 58.4011 102.691 61.1017 107 61.7768C94.5191 82.9313 97.1936 103.861 98.9765 113.763C93.8504 120.739 85.1584 120.964 69.3343 118.264C50.39 122.99 42.1437 116.988 39.4692 113.088Z" fill="#007DF0"/>
<path d="M66.9193 201C68.3392 200.116 69.7294 200.631 70.2471 201C71.312 186.672 91.0552 177.411 102 177.559C102.5 165.5 100.831 167.171 99.5 158.99C98.1689 150.809 98.9344 124.355 99.5 119C99.9437 114.799 99.4579 113.59 99.0882 113C94.2074 120.518 83.1147 120.518 68.6941 118.085C57.1577 120.96 44.8245 120.018 39.5 112.5C38.9823 112.647 37.4127 114.106 38.3001 118.528C39.4446 124.231 40.7405 152.136 38.5219 158.99C36.7471 164.473 36 163.5 35.5 183C63.0099 183.884 66.9193 195.546 66.9193 201Z" fill="#0E4272"/>
<path d="M72.3486 347.454C69.8443 353.525 71.3051 358.019 72.3486 359.507C74.2863 359.879 79.5481 360.4 85.093 359.507C90.6378 358.614 92.6204 356.308 92.9187 355.266C92.9187 354.076 92.6503 350.847 91.5771 347.454C90.2356 343.213 88.4468 322.008 92.9187 314.419C97.3905 306.83 96.7197 273.572 96.4961 270.447C96.3172 267.947 97.6142 256.757 98.2851 251.475C106.156 228.975 101.795 170 101.795 170C101.795 170 69.1237 187.191 70.018 201.03C70.9922 216.104 78.1619 256.385 78.1619 272.679C74.3519 295.893 78.1619 307.5 78.1619 322.008C78.1619 336.517 75.4788 339.865 72.3486 347.454Z" fill="#007DF0"/>
<path d="M65.6514 347.454C68.1557 353.525 66.6949 358.019 65.6514 359.507C63.7137 359.879 58.4519 360.4 52.907 359.507C47.3622 358.614 45.3796 356.308 45.0813 355.266C45.0813 354.076 45.3497 350.847 46.4229 347.454C47.7644 343.213 49.5532 322.008 45.0813 314.419C40.6095 306.83 41.2803 273.572 41.5039 270.447C41.6828 267.947 40.3858 256.757 39.7149 251.475C31.8445 228.975 36.2045 170 36.2045 170C36.2045 170 68.8763 187.191 67.982 201.03C67.0078 216.104 59.8381 256.385 59.8381 272.679C63.6481 295.893 59.8381 307.5 59.8381 322.008C59.8381 336.517 62.5212 339.865 65.6514 347.454Z" fill="#007DF0"/>
</svg>
