<svg width="16" height="16" viewBox="0 0 16 16" fill="none" xmlns="http://www.w3.org/2000/svg">
<path fill-rule="evenodd" clip-rule="evenodd" d="M14.0905 10.5821C14.3027 10.5821 14.5149 10.3722 14.5149 10.1623L16 4.70482C16 4.49492 16 4.49492 16 4.28502C16 4.07511 15.7878 4.07511 15.5757 4.07511L2.84598 3.2355L2.42166 1.13646C2.42166 0.926559 2.2095 0.926559 2.2095 0.716656L0.724365 0.0869449C0.512203 -0.122959 0.300042 0.0869449 0.0878802 0.296848C-0.124281 0.506752 0.0878802 0.716656 0.300042 0.926559L1.57301 1.55627L3.05814 9.95241L2.84598 11.4217C1.99733 11.6316 1.36085 12.2614 1.36085 13.3109C1.36085 14.3604 2.2095 15.2 3.2703 15.2C4.11895 15.2 4.9676 14.5703 5.17976 13.5208H11.5446C11.7568 14.3604 12.3933 15.2 13.4541 15.2C14.5149 15.2 15.3635 14.3604 15.3635 13.3109C15.3635 12.2614 14.5149 11.4217 13.4541 11.4217C12.6054 11.4217 11.9689 11.8415 11.7568 12.4713H8.46826H5.17976C4.9676 12.0514 4.54327 11.6316 4.11895 11.4217L4.33111 10.3722H14.5149L14.0905 10.5821ZM13.2419 12.4713C13.6662 12.4713 14.0905 12.8911 14.0905 13.3109C14.0905 13.7307 13.6662 14.1505 13.2419 14.1505C12.8176 14.1505 12.3933 13.7307 12.3933 13.3109C12.3933 12.8911 12.8176 12.4713 13.2419 12.4713ZM4.11895 13.3109C4.11895 13.7307 3.69463 14.1505 3.2703 14.1505C2.84598 14.1505 2.42166 13.7307 2.42166 13.3109C2.42166 12.8911 2.84598 12.4713 3.2703 12.4713C3.69463 12.4713 4.11895 12.8911 4.11895 13.3109ZM3.05814 4.28502L14.9392 4.91473L13.6662 9.53261H3.90679L3.05814 4.28502Z" fill="#FEFEFE"/>
</svg>
