<svg width="14" height="14" viewBox="0 0 14 14" fill="none" xmlns="http://www.w3.org/2000/svg">
<path d="M13.4 5.06509C13.4 5.36277 13.2511 5.5116 12.9535 5.5116C12.6558 5.5116 12.507 5.36277 12.507 5.06509V2.08835L8.19067 6.40463C8.04184 6.55346 7.74416 6.55346 7.59532 6.40463C7.44649 6.25579 7.44649 5.95812 7.59532 5.80928L11.9116 1.493H8.93486C8.63719 1.493 8.48835 1.34416 8.48835 1.04649C8.48835 0.748813 8.63719 0.599976 8.93486 0.599976H12.9535C13.2511 0.599976 13.4 0.748813 13.4 1.04649V5.06509ZM7.59532 8.19067C7.44649 8.04184 7.44649 7.74416 7.59532 7.59532C7.74416 7.44649 8.04184 7.44649 8.19067 7.59532L12.507 11.9116V8.93486C12.507 8.63719 12.6558 8.48835 12.9535 8.48835C13.2511 8.48835 13.4 8.63719 13.4 8.93486V12.9535C13.4 13.2511 13.2511 13.4 12.9535 13.4H8.93486C8.63719 13.4 8.48835 13.2511 8.48835 12.9535C8.48835 12.6558 8.63719 12.507 8.93486 12.507H11.9116L7.59532 8.19067ZM5.80928 7.59532C5.95812 7.44649 6.25579 7.44649 6.40463 7.59532C6.55346 7.74416 6.55346 8.04184 6.40463 8.19067L2.08835 12.507H5.06509C5.36277 12.507 5.5116 12.6558 5.5116 12.9535C5.5116 13.2511 5.36277 13.4 5.06509 13.4H1.04649C0.748813 13.4 0.599976 13.2511 0.599976 12.9535V8.93486C0.599976 8.63719 0.748813 8.48835 1.04649 8.48835C1.34416 8.48835 1.493 8.63719 1.493 8.93486V11.9116L5.80928 7.59532ZM6.40463 5.80928C6.55346 5.95812 6.55346 6.25579 6.40463 6.40463C6.25579 6.55346 5.95812 6.55346 5.80928 6.40463L1.493 2.08835V5.06509C1.493 5.36277 1.34416 5.5116 1.04649 5.5116C0.748813 5.5116 0.599976 5.36277 0.599976 5.06509V1.04649C0.599976 0.748813 0.748813 0.599976 1.04649 0.599976H5.06509C5.36277 0.599976 5.5116 0.748813 5.5116 1.04649C5.5116 1.34416 5.36277 1.493 5.06509 1.493H2.08835L6.40463 5.80928Z" fill="#FEFEFE"/>
</svg>
