<svg width="32" height="32" viewBox="0 0 32 32" fill="none" xmlns="http://www.w3.org/2000/svg">
<rect width="32" height="32" rx="4" fill="#C2C3C3"/>
<path fill-rule="evenodd" clip-rule="evenodd" d="M17.9458 13.2396C17.7578 13.2396 17.6074 13.4154 17.6074 13.6351V21.2589C17.6074 21.4786 17.7578 21.6544 17.9458 21.6544C18.1337 21.6544 18.2841 21.4786 18.2841 21.2589V13.6351C18.2841 13.4154 18.1337 13.2396 17.9458 13.2396Z" fill="#FEFEFE"/>
<path fill-rule="evenodd" clip-rule="evenodd" d="M13.8852 13.2396C13.6972 13.2396 13.5469 13.4154 13.5469 13.6351V21.2589C13.5469 21.4786 13.6972 21.6544 13.8852 21.6544C14.0732 21.6544 14.2235 21.4786 14.2235 21.2589V13.6351C14.2235 13.4154 14.0732 13.2396 13.8852 13.2396Z" fill="#FEFEFE"/>
<path fill-rule="evenodd" clip-rule="evenodd" d="M10.9155 12.1192V22.0499C10.9155 22.6431 11.1034 23.1924 11.423 23.5878C11.7425 23.9833 12.1936 24.203 12.6635 24.203H19.1858C19.6557 24.203 20.1068 23.9833 20.4263 23.5878C20.7459 23.1924 20.9338 22.6431 20.9338 22.0499V12.1192C21.5729 11.9214 21.9864 11.1964 21.9112 10.4274C21.8173 9.65845 21.2722 9.08721 20.6143 9.08721H18.8475V8.58189C18.8475 8.16444 18.6971 7.747 18.4528 7.46138C18.1896 7.15379 17.8513 7 17.4941 7H14.4304C14.0732 7 13.7161 7.15379 13.4718 7.46138C13.2086 7.76897 13.077 8.16444 13.077 8.58189V9.08721H11.3102C10.6523 9.08721 10.0885 9.65845 10.0133 10.4274C9.91929 11.1964 10.3328 11.9214 10.9907 12.1192H10.9155ZM19.1858 23.3901H12.6635C12.0808 23.3901 11.6109 22.7969 11.6109 22.0499V12.1631H20.2384V22.0499C20.2384 22.8189 19.7873 23.3901 19.1858 23.3901ZM13.7161 8.58189C13.7161 8.36218 13.7913 8.16444 13.9041 8.03262C14.0357 7.87883 14.2048 7.81291 14.3928 7.81291H17.4566C17.6445 7.81291 17.8137 7.9008 17.9453 8.03262C18.0768 8.18641 18.152 8.38415 18.1332 8.58189V9.08721H13.7161V8.58189ZM11.2538 9.90012H20.5767C20.915 9.90012 21.197 10.2297 21.197 10.6252C21.197 11.0206 20.915 11.3502 20.5767 11.3502H11.2538C10.9155 11.3502 10.6335 11.0206 10.6335 10.6252C10.6335 10.2297 10.9155 9.90012 11.2538 9.90012Z" fill="#FEFEFE"/>
<path fill-rule="evenodd" clip-rule="evenodd" d="M15.9145 13.2396C15.7265 13.2396 15.5762 13.4154 15.5762 13.6351V21.2589C15.5762 21.4786 15.7265 21.6544 15.9145 21.6544C16.1025 21.6544 16.2528 21.4786 16.2528 21.2589V13.6351C16.2528 13.4154 16.1025 13.2396 15.9145 13.2396Z" fill="#FEFEFE"/>
</svg>
